<svg xmlns="http://www.w3.org/2000/svg" xmlns:xlink="http://www.w3.org/1999/xlink" width="133.518" height="139.016" viewBox="0 0 133.518 139.016"><defs><style>.a{fill:none;stroke:#292e5f;stroke-miterlimit:10;stroke-dasharray:12;}.a,.r{stroke-width:2px;}.b{fill:url(#a);}.c{fill:#fcbc77;}.d{fill:url(#b);}.e{fill:url(#c);}.f,.r{fill:#fff;}.g{fill:#f9f9f9;}.h{fill:#dbdbdb;}.i{fill:url(#d);}.j{fill:url(#e);}.k{fill:#4267b2;}.l{fill:url(#f);}.m{fill:url(#g);}.n{opacity:0.5;}.o{fill:url(#h);}.p{fill:#3ec241;}.q{fill:url(#i);}.r{stroke:#fff;}</style><linearGradient id="a" x1="0.5" y1="1" x2="0.5" gradientUnits="objectBoundingBox"><stop offset="0" stop-color="gray" stop-opacity="0.251"/><stop offset="0.54" stop-color="gray" stop-opacity="0.122"/><stop offset="1" stop-color="gray" stop-opacity="0.102"/></linearGradient><linearGradient id="b" x1="0.5" y1="1" x2="0.5" y2="0" xlink:href="#a"/><linearGradient id="c" x1="1.241" y1="1.124" x2="1.241" y2="0.124" xlink:href="#a"/><linearGradient id="d" x1="0.5" y1="1" x2="0.5" y2="0" xlink:href="#a"/><linearGradient id="e" x1="1.307" y1="2.047" x2="1.307" y2="1.047" xlink:href="#a"/><linearGradient id="f" x1="0.5" y1="1" x2="0.5" y2="0" xlink:href="#a"/><linearGradient id="g" x1="0.5" y1="1" x2="0.5" y2="0" xlink:href="#a"/><linearGradient id="h" x1="0.5" y1="1" x2="0.5" y2="0" xlink:href="#a"/><linearGradient id="i" x1="0.5" y1="1" x2="0.5" y2="0" xlink:href="#a"/></defs><circle class="a" cx="54.251" cy="54.251" r="54.251" transform="translate(12.508 18.005)"/><circle class="a" cx="65.759" cy="65.759" r="65.759" transform="translate(1 6.497)"/><path class="b" d="M505.35,516.073a14.834,14.834,0,0,0-29.409-2.766l-45.591-1.237.5,7.833s-6.5,15,27.666,19v15.161h39.5V528.854A14.825,14.825,0,0,0,505.35,516.073Z" transform="translate(-394.58 -422.867)"/><path class="c" d="M439.486,571.672s-6.225,14.365,26.5,18.2v14.525h37.828V565.927L439,564.17Z" transform="translate(-401.65 -474.306)"/><path class="d" d="M396.864,169.533h0a6.974,6.974,0,0,1-9.59,2.179l-20.31-13.384a6.974,6.974,0,0,1-2.179-9.59h0a6.974,6.974,0,0,1,9.583-2.179l20.31,13.384A6.974,6.974,0,0,1,396.864,169.533Z" transform="translate(-340.123 -132.113)"/><path class="c" d="M401.126,173.055h0a6.483,6.483,0,0,1-8.914,2.026l-18.886-12.45a6.483,6.483,0,0,1-2.026-8.914h0a6.483,6.483,0,0,1,8.914-2.026L399.1,164.134A6.483,6.483,0,0,1,401.126,173.055Z" transform="translate(-345.509 -136.365)"/><circle class="c" cx="14.206" cy="14.206" r="14.206" transform="translate(80.773 79.49)"/><rect class="e" width="58.895" height="106.303" rx="8" transform="translate(35.765)"/><rect class="f" width="57.302" height="103.432" rx="8" transform="translate(36.559 1.438)"/><path class="g" d="M482.6,94.28a4.473,4.473,0,0,1-4.409,3.8H459.14a4.473,4.473,0,0,1-4.408-3.8h-10.1a2.1,2.1,0,0,0-2.1,2.095v90.4a2.1,2.1,0,0,0,2.095,2.1H492.85a2.1,2.1,0,0,0,2.1-2.095v-90.4a2.1,2.1,0,0,0-2.095-2.1Z" transform="translate(-403.532 -88.424)"/><rect class="h" width="12.77" height="0.798" rx="0.399" transform="translate(58.906 5.268)"/><circle class="h" cx="0.479" cy="0.479" r="0.479" transform="translate(73.91 5.109)"/><path class="i" d="M726.128,373.118h0c-4.123.954-6.952-1.735-7.906-5.856l-9.473-35.176a7.716,7.716,0,0,1,5.763-9.226h0a7.716,7.716,0,0,1,9.226,5.763l7.73,36.084C732.423,368.829,730.249,372.165,726.128,373.118Z" transform="translate(-621.967 -276.916)"/><rect class="c" width="12.929" height="51.623" rx="6.464" transform="translate(86.657 49.18) rotate(-13.01)"/><rect class="j" width="54.069" height="12.604" transform="translate(55.056 125.335)"/><rect class="k" width="51.146" height="9.864" transform="translate(56.517 126.796)"/><path class="l" d="M384.322,397.12h0a6.89,6.89,0,0,1-9.475,2.154l-13.621-8.814a6.89,6.89,0,0,1-2.154-9.475h0a6.89,6.89,0,0,1,9.475-2.154l13.621,8.814A6.89,6.89,0,0,1,384.322,397.12Z" transform="translate(-335.464 -321.965)"/><path class="m" d="M388.281,510.733h0a6.952,6.952,0,0,1-9.561,2.174l-8.437-6.152a6.952,6.952,0,0,1-2.174-9.561h0a6.952,6.952,0,0,1,9.561-2.174l8.437,6.154A6.952,6.952,0,0,1,388.281,510.733Z" transform="translate(-342.843 -416.922)"/><g class="n" transform="translate(48.781 36.725)"><circle class="o" cx="16.429" cy="16.429" r="16.429"/></g><circle class="p" cx="15.463" cy="15.463" r="15.463" transform="translate(49.771 37.629)"/><path class="c" d="M390.969,513.333h0a6.483,6.483,0,0,1-8.914,2.026l-7.869-5.728a6.483,6.483,0,0,1-2.026-8.914h0a6.483,6.483,0,0,1,8.914-2.026l7.867,5.739A6.483,6.483,0,0,1,390.969,513.333Z" transform="translate(-346.212 -419.98)"/><path class="c" d="M387.186,399.587h0a6.483,6.483,0,0,1-8.914,2.026l-12.816-8.293a6.483,6.483,0,0,1-2.026-8.914h0a6.483,6.483,0,0,1,8.914-2.026l12.816,8.293A6.483,6.483,0,0,1,387.186,399.587Z" transform="translate(-339.077 -324.916)"/><path class="q" d="M387.054,284.4h0a6.923,6.923,0,0,1-9.519,2.163l-17.262-11.239a6.923,6.923,0,0,1-2.163-9.519h0a6.923,6.923,0,0,1,9.519-2.163l17.262,11.239A6.923,6.923,0,0,1,387.054,284.4Z" transform="translate(-334.674 -227.811)"/><path class="c" d="M390.548,287.391h0a6.483,6.483,0,0,1-8.914,2.026L365.466,278.89a6.483,6.483,0,0,1-2.026-8.914h0a6.483,6.483,0,0,1,8.914-2.026l16.166,10.527A6.483,6.483,0,0,1,390.548,287.391Z" transform="translate(-339.085 -231.388)"/><g transform="translate(57.261 47.127)"><path class="r" d="M15.834,68.238a.792.792,0,0,0-1.136,0L5.071,78.069l-3.7-3.779a.792.792,0,0,0-1.136,0,.833.833,0,0,0,0,1.16L4.5,79.81a.792.792,0,0,0,1.136,0L15.834,69.4A.833.833,0,0,0,15.834,68.238Z" transform="translate(0 -67.998)"/></g></svg>